<svg width="25" height="25" viewBox="0 0 25 25" fill="none" xmlns="http://www.w3.org/2000/svg">
<path d="M15 12.5C15 13.8807 13.8807 15 12.5 15C11.1193 15 10 13.8807 10 12.5C10 11.1193 11.1193 10 12.5 10C13.8807 10 15 11.1193 15 12.5Z" fill="white"/>
<path fill-rule="evenodd" clip-rule="evenodd" d="M18.0467 8.30286C17.9327 7.99391 17.7508 7.71426 17.5145 7.48472C17.2849 7.24838 17.0055 7.06648 16.6963 6.95247C16.4456 6.85509 16.069 6.73919 15.3752 6.70761C14.6248 6.67339 14.3998 6.66602 12.4999 6.66602C10.5999 6.66602 10.3749 6.6732 9.62463 6.70742C8.9309 6.73919 8.55407 6.85509 8.30354 6.95247C7.9944 7.06648 7.71475 7.24838 7.4854 7.48472C7.24905 7.71426 7.06716 7.99372 6.95296 8.30286C6.85558 8.55358 6.73968 8.93041 6.7081 9.62414C6.67388 10.3744 6.6665 10.5994 6.6665 12.4994C6.6665 14.3993 6.67388 14.6243 6.7081 15.3747C6.73968 16.0685 6.85558 16.4451 6.95296 16.6958C7.06716 17.005 7.24886 17.2844 7.48521 17.514C7.71475 17.7503 7.99421 17.9322 8.30335 18.0462C8.55407 18.1438 8.9309 18.2597 9.62463 18.2913C10.3749 18.3255 10.5997 18.3327 12.4997 18.3327C14.4 18.3327 14.625 18.3255 15.375 18.2913C16.0688 18.2597 16.4456 18.1438 16.6963 18.0462C17.3169 17.8069 17.8073 17.3164 18.0467 16.6958C18.1441 16.4451 18.26 16.0685 18.2918 15.3747C18.326 14.6243 18.3332 14.3993 18.3332 12.4994C18.3332 10.5994 18.326 10.3744 18.2918 9.62414C18.2602 8.93041 18.1443 8.55358 18.0467 8.30286ZM12.4999 16.153C10.4819 16.153 8.846 14.5173 8.846 12.4993C8.846 10.4812 10.4819 8.84552 12.4999 8.84552C14.5178 8.84552 16.1537 10.4812 16.1537 12.4993C16.1537 14.5173 14.5178 16.153 12.4999 16.153ZM15.4443 8.70106C15.4443 9.17262 15.8266 9.55493 16.2981 9.55493C16.7697 9.55493 17.1518 9.17262 17.152 8.70106C17.152 8.2295 16.7697 7.84718 16.2981 7.84718C15.8266 7.84718 15.4443 8.2295 15.4443 8.70106Z" fill="white"/>
<path fill-rule="evenodd" clip-rule="evenodd" d="M0 12.5C0 5.5975 5.5975 0 12.5 0C19.4025 0 25 5.5975 25 12.5C25 19.4025 19.4025 25 12.5 25C5.5975 25 0 19.4025 0 12.5ZM19.3008 17.2016C19.4782 16.745 19.5997 16.2233 19.6344 15.4593C19.6695 14.6938 19.6777 14.4493 19.6777 12.5C19.6777 10.5507 19.6695 10.3062 19.6346 9.54075C19.5997 8.77666 19.4784 8.255 19.3008 7.79839C19.1208 7.31945 18.8381 6.88572 18.4731 6.52714C18.1145 6.16188 17.6805 5.87921 17.2016 5.69897C16.745 5.52177 16.2233 5.40047 15.4593 5.36575C14.6938 5.33066 14.4493 5.32227 12.5 5.32227C10.5507 5.32227 10.3062 5.33066 9.54075 5.36556C8.77666 5.40047 8.255 5.52177 7.79839 5.69916C7.31945 5.8794 6.88553 6.16188 6.52714 6.52714C6.16188 6.88553 5.87921 7.31945 5.69897 7.79839C5.52158 8.255 5.40028 8.77666 5.36556 9.54075C5.33047 10.3062 5.32227 10.5507 5.32227 12.5C5.32227 14.4493 5.33047 14.6938 5.36575 15.4594C5.40047 16.2233 5.52197 16.7452 5.69935 17.2016C5.87959 17.6805 6.16207 18.1145 6.52714 18.4729C6.88572 18.8381 7.31945 19.1206 7.79858 19.3008C8.255 19.4782 8.77686 19.5995 9.54075 19.6344C10.3064 19.6693 10.5507 19.6777 12.5002 19.6777C14.4495 19.6777 14.694 19.6693 15.4594 19.6344C16.2233 19.5995 16.7452 19.4782 17.2016 19.3008C18.1658 18.928 18.928 18.1658 19.3008 17.2016Z" fill="white"/>
</svg>
