<svg width="25" height="25" viewBox="0 0 25 25" fill="none" xmlns="http://www.w3.org/2000/svg">
<path fill-rule="evenodd" clip-rule="evenodd" d="M0 12.5C0 5.5975 5.5975 0 12.5 0C19.4025 0 25 5.5975 25 12.5C25 19.4025 19.4025 25 12.5 25C5.5975 25 0 19.4025 0 12.5ZM18.2156 10.117C18.2156 9.99279 18.2129 9.86919 18.2074 9.74617C18.7675 9.34124 19.2545 8.83579 19.6384 8.26035C19.1244 8.48885 18.5713 8.64277 17.9909 8.7122C18.5833 8.35686 19.038 7.79495 19.2526 7.12528C18.6981 7.45392 18.0843 7.69272 17.4307 7.82166C16.9071 7.26395 16.1617 6.91509 15.3364 6.91509C13.752 6.91509 12.467 8.20007 12.467 9.78394C12.467 10.009 12.4924 10.228 12.5416 10.4382C10.157 10.3182 8.04253 9.17645 6.62766 7.44038C6.38123 7.86438 6.23913 8.35686 6.23913 8.88252C6.23913 9.87797 6.74553 10.7567 7.51591 11.2707C7.04517 11.2562 6.60305 11.1269 6.21643 10.9119C6.21605 10.924 6.21605 10.9356 6.21605 10.9486C6.21605 12.3379 7.20501 13.4981 8.51784 13.7609C8.27675 13.8268 8.02307 13.862 7.76119 13.862C7.57675 13.862 7.39689 13.8437 7.22198 13.8102C7.58743 14.9502 8.64639 15.7797 9.90238 15.803C8.92029 16.5726 7.68318 17.0311 6.33888 17.0311C6.10752 17.0311 5.87902 17.0179 5.65453 16.9914C6.92425 17.8053 8.43201 18.2802 10.0523 18.2802C15.3297 18.28 18.2156 13.9082 18.2156 10.117Z" fill="white"/>
</svg>
