<svg width="24" height="24" viewBox="0 0 24 24" fill="none" xmlns="http://www.w3.org/2000/svg">
<path fill-rule="evenodd" clip-rule="evenodd" d="M0 12C0 5.3736 5.3736 0 12 0C18.6264 0 24 5.3736 24 12C24 18.6264 18.6264 24 12 24C5.3736 24 0 18.6264 0 12ZM18.3903 8.78499C18.2367 8.21663 17.7836 7.76348 17.2152 7.60987C16.1707 7.33337 12.0002 7.33337 12.0002 7.33337C12.0002 7.33337 7.82966 7.33337 6.78511 7.60987C6.21675 7.76348 5.7636 8.21663 5.60999 8.78499C5.3335 9.82953 5.3335 11.9878 5.3335 11.9878C5.3335 11.9878 5.3335 14.1613 5.60999 15.1905C5.7636 15.7589 6.21675 16.212 6.78511 16.3656C7.82966 16.6421 12.0002 16.6421 12.0002 16.6421C12.0002 16.6421 16.1707 16.6421 17.2152 16.3656C17.7836 16.212 18.2367 15.7589 18.3903 15.1905C18.6668 14.146 18.6668 11.9878 18.6668 11.9878C18.6668 11.9878 18.6668 9.82185 18.3903 8.78499Z" fill="white"/>
<path d="M10.6636 9.99121V14.0004L14.1352 12.0035L10.6636 9.99121Z" fill="white"/>
</svg>
